<svg width="33" height="33" viewBox="0 0 33 33" fill="none" xmlns="http://www.w3.org/2000/svg">
<path d="M15.5775 19.777C14.62 19.1295 13.6562 18.4914 12.6987 17.8439C12.5737 17.7577 12.4844 17.7514 12.355 17.8439L9.92499 19.4764C11.875 20.7745 15.75 23.3633 15.75 23.3633V20.0014C15.75 19.9252 15.6531 19.8277 15.5775 19.777Z" fill="#F7F7F7"/>
<path d="M12.6931 15.8229C13.6594 15.1879 14.62 14.5449 15.575 13.8941C15.6256 13.8535 15.6672 13.8029 15.6973 13.7455C15.7274 13.6881 15.7454 13.625 15.75 13.5604V10.3291C15.75 10.3291 11.875 12.8991 9.92126 14.2004C10.7775 14.7729 11.5881 15.3197 12.4075 15.8529C12.4713 15.8941 12.62 15.8704 12.6931 15.8229Z" fill="#F7F7F7"/>
<path d="M17.365 13.8649C18.3529 14.5345 19.3452 15.1974 20.3419 15.8537C20.3791 15.8722 20.42 15.8818 20.4616 15.8818C20.5031 15.8818 20.5441 15.8722 20.5812 15.8537L23.0662 14.1993L17.25 10.3105V13.6449C17.2523 13.6877 17.2638 13.7295 17.2836 13.7674C17.3035 13.8054 17.3312 13.8386 17.365 13.8649Z" fill="#F7F7F7"/>
<path d="M16.6318 15.179C16.5851 15.1575 16.5339 15.1473 16.4825 15.1491C16.431 15.151 16.3807 15.1649 16.3356 15.1897C16.0343 15.3772 15.7437 15.5772 15.45 15.774C14.9344 16.1197 13.8656 16.8365 13.8656 16.8365L16.2931 18.4528C16.3518 18.4887 16.419 18.5082 16.4878 18.5094C16.5566 18.5106 16.6244 18.4935 16.6844 18.4597L19.1219 16.8347C19.1219 16.8347 16.9925 15.4184 16.6318 15.179Z" fill="#F7F7F7"/>
<path d="M9.3125 15.6006V18.0762L11.1637 16.8362L9.3125 15.6006Z" fill="#F7F7F7"/>
<path d="M17 1C8.71585 1 2 7.71585 2 16C2 24.2842 8.71585 31 17 31C25.2842 31 32 24.2842 32 16C32 7.71585 25.2842 1 17 1ZM26.308 18.7455C26.308 19.1326 26.1306 19.4058 25.8051 19.6221C23.0502 21.4525 20.2982 23.2871 17.5491 25.1259C17.1574 25.3884 16.8011 25.377 16.4107 25.1165C13.6799 23.2862 10.9426 21.4632 8.19888 19.6475C7.8567 19.4205 7.69063 19.1413 7.69063 18.7281V13.3884C7.69063 12.9772 7.85937 12.696 8.20089 12.4696C10.9404 10.6529 13.6879 8.82946 16.4194 7C16.8092 6.73951 17.1621 6.73214 17.5538 6.99397C20.3011 8.83371 23.0525 10.6683 25.8078 12.4978C26.1212 12.706 26.3067 12.9632 26.3067 13.3455L26.308 18.7455Z" fill="#F7F7F7"/>
<path d="M20.2656 17.8578C19.3244 18.497 18.3788 19.129 17.4288 19.754C17.2781 19.8528 17.2481 19.9609 17.25 20.1409V23.3497L23.0625 19.4747L20.6544 17.8572C20.5106 17.7565 20.4113 17.759 20.2656 17.8578Z" fill="#F7F7F7"/>
<path d="M23.625 18.0734V15.5972L21.7756 16.839L23.625 18.0734Z" fill="#F7F7F7"/>
</svg>
