<svg width="33" height="33" viewBox="0 0 33 33" fill="none" xmlns="http://www.w3.org/2000/svg">
<g clip-path="url(#clip0_1018_16)">
<path d="M16.5 1.17678C7.661 1.17678 0.5 8.34378 0.5 17.1768C0.5 24.2498 5.084 30.2448 11.437 32.3598C12.24 32.5108 12.53 32.0158 12.53 31.5878C12.53 31.2078 12.521 30.2028 12.515 28.8688C8.062 29.8328 7.124 26.7178 7.124 26.7178C6.395 24.8738 5.343 24.3788 5.343 24.3788C3.895 23.3898 5.458 23.4108 5.458 23.4108C7.062 23.5198 7.906 25.0558 7.906 25.0558C9.333 27.5038 11.65 26.7958 12.567 26.3838C12.707 25.3528 13.124 24.6438 13.578 24.2488C10.026 23.8478 6.291 22.4728 6.291 16.3418C6.291 14.5908 6.911 13.1648 7.936 12.0448C7.759 11.6438 7.217 10.0138 8.077 7.80978C8.077 7.80978 9.416 7.38278 12.477 9.45078C13.758 9.09578 15.118 8.91878 16.477 8.90978C17.837 8.91878 19.196 9.09678 20.477 9.45078C23.52 7.38278 24.858 7.80978 24.858 7.80978C25.717 10.0138 25.175 11.6428 25.019 12.0448C26.034 13.1648 26.654 14.5918 26.654 16.3418C26.654 22.4868 22.914 23.8418 19.358 24.2328C19.914 24.7118 20.435 25.6968 20.435 27.1918C20.435 29.3318 20.415 31.0558 20.415 31.5768C20.415 31.9928 20.695 32.4928 21.519 32.3318C27.919 30.2388 32.498 24.2388 32.498 17.1758C32.498 8.34278 25.337 1.17578 16.498 1.17578L16.5 1.17678Z" fill="#F7F7F7"/>
</g>
<defs>
<clipPath id="clip0_1018_16">
<rect width="32" height="32" fill="white" transform="translate(0.5 0.780762)"/>
</clipPath>
</defs>
</svg>
