<svg width="33" height="33" viewBox="0 0 33 33" fill="none" xmlns="http://www.w3.org/2000/svg">
<path d="M16.5 0.780762C7.66342 0.780762 0.5 7.94418 0.5 16.7808C0.5 25.6173 7.66342 32.7808 16.5 32.7808C25.3366 32.7808 32.5 25.6173 32.5 16.7808C32.5 7.94418 25.3366 0.780762 16.5 0.780762ZM10.505 27.6136H6.00695V13.1414H10.505V27.6136ZM8.25693 11.1632C6.81521 11.1632 5.64815 9.99447 5.64815 8.55472C5.64848 7.11627 6.81521 5.94758 8.25693 5.94758C9.69472 5.94758 10.8634 7.11627 10.8634 8.55472C10.8634 9.9948 9.69439 11.1632 8.25693 11.1632ZM27.3515 27.6136H22.8571V20.5756C22.8571 18.8972 22.826 16.7385 20.5191 16.7385C18.1797 16.7385 17.8199 18.5665 17.8199 20.4541V27.6133H13.3259V13.1414H17.6399V15.1191H17.7004C18.3012 13.9811 19.7678 12.7817 21.9562 12.7817C26.5108 12.7817 27.3515 15.779 27.3515 19.6757V27.6136Z" fill="#F7F7F7"/>
</svg>
