<svg width="33" height="33" viewBox="0 0 33 33" fill="none" xmlns="http://www.w3.org/2000/svg">
<g clip-path="url(#clip0_1018_29)">
<path d="M16.5 0.780762C7.66342 0.780762 0.5 7.94418 0.5 16.7808C0.5 25.6173 7.66342 32.7808 16.5 32.7808C25.3366 32.7808 32.5 25.6173 32.5 16.7808C32.5 7.94418 25.3366 0.780762 16.5 0.780762ZM26.1753 12.5139C26.1828 12.7028 26.1868 12.892 26.1868 13.0822C26.1868 19.9169 20.9859 26.9864 12.2825 26.9864C9.62205 26.9864 7.0316 26.2272 4.79144 24.7904C4.74462 24.7606 4.72531 24.7027 4.74397 24.6506C4.76263 24.5989 4.81534 24.5668 4.86935 24.573C5.24517 24.6179 5.62949 24.6402 6.01087 24.6402C8.08081 24.6402 10.0404 24.0002 11.6979 22.786C9.71109 22.6183 8.00355 21.2739 7.38941 19.3558C7.37664 19.3159 7.38581 19.2723 7.41331 19.2409C7.44114 19.2095 7.48369 19.1957 7.52429 19.2033C8.07492 19.3077 8.63471 19.3146 9.17421 19.2268C7.12523 18.5901 5.68515 16.6708 5.68515 14.4856L5.6858 14.4221C5.68678 14.3805 5.70937 14.3425 5.74538 14.3219C5.78106 14.301 5.82559 14.3006 5.8616 14.3209C6.39586 14.6175 6.98708 14.8081 7.59369 14.8811C6.41615 13.9425 5.72476 12.5198 5.72476 10.9978C5.72476 10.1199 5.95719 9.25692 6.39717 8.50234C6.41681 8.46862 6.45151 8.44701 6.49014 8.44407C6.52909 8.44014 6.56674 8.45716 6.59129 8.48728C9.00136 11.4434 12.5464 13.2635 16.3373 13.4976C16.2741 13.1794 16.242 12.8514 16.242 12.5204C16.242 9.78332 18.4688 7.5569 21.2056 7.5569C22.551 7.5569 23.8513 8.10983 24.7833 9.07621C25.8339 8.86211 26.8346 8.47582 27.7591 7.92781C27.8013 7.9026 27.8544 7.90653 27.8933 7.93698C27.9313 7.96775 27.947 8.01882 27.9319 8.06596C27.6186 9.04576 27.0078 9.90052 26.1871 10.5176C26.96 10.3831 27.71 10.1559 28.4233 9.8393C28.4711 9.81736 28.5277 9.83111 28.5621 9.87138C28.5962 9.91197 28.5991 9.96992 28.5696 10.0138C27.9198 10.9864 27.1145 11.8274 26.1753 12.5139Z" fill="#F7F7F7"/>
</g>
<defs>
<clipPath id="clip0_1018_29">
<rect width="32" height="32" fill="white" transform="translate(0.5 0.780762)"/>
</clipPath>
</defs>
</svg>
